<svg width="25" height="24" viewBox="0 0 25 24" fill="none" xmlns="http://www.w3.org/2000/svg">
<path d="M9.83022 17H14.5032M12.1667 3V4M18.5307 5.63604L17.8235 6.34315M21.1667 11.9999H20.1667M4.16675 11.9999H3.16675M6.50984 6.34315L5.80273 5.63604M8.63116 15.5356C6.67854 13.5829 6.67854 10.4171 8.63116 8.46449C10.5838 6.51187 13.7496 6.51187 15.7022 8.46449C17.6549 10.4171 17.6549 13.5829 15.7022 15.5356L15.1551 16.0827C14.5222 16.7155 14.1667 17.5739 14.1667 18.469V19C14.1667 20.1046 13.2713 21 12.1667 21C11.0621 21 10.1667 20.1046 10.1667 19V18.469C10.1667 17.5739 9.81114 16.7155 9.17826 16.0827L8.63116 15.5356Z" stroke="#111827" stroke-width="2" stroke-linecap="round" stroke-linejoin="round"/>
</svg>
