<svg width="206" height="77" viewBox="0 0 206 77" fill="none" xmlns="http://www.w3.org/2000/svg">
<path d="M43.7773 10.8145C44.6237 10.0007 45.3887 9.44727 46.0723 9.1543C46.7884 8.82878 47.5371 8.66602 48.3184 8.66602C49.1322 8.66602 49.8971 8.82878 50.6133 9.1543C51.3294 9.44727 51.9479 9.85417 52.4688 10.375C53.6081 11.4492 54.1777 12.7839 54.1777 14.3789V61.5469C54.1777 65.5182 52.7292 68.9199 49.832 71.752C46.9674 74.584 43.5495 76 39.5781 76H30.9355C29.6986 76 28.6406 75.5768 27.7617 74.7305C26.9154 73.8841 26.4922 72.8424 26.4922 71.6055C26.4922 70.3685 26.9154 69.3268 27.7617 68.4805C28.6406 67.6016 29.6986 67.1621 30.9355 67.1621H36.6973C39.2689 67.1621 41.0755 66.0065 42.1172 63.6953C42.4102 62.9792 42.5566 62.2305 42.5566 61.4492V54.7598C42.5566 54.1413 42.3776 53.7344 42.0195 53.5391C41.694 53.3112 41.3685 53.1973 41.043 53.1973C40.7174 53.1973 40.4245 53.3438 40.1641 53.6367L39.334 54.418C37.1204 56.6315 34.5488 57.7383 31.6191 57.7383C28.1361 57.7383 25.2227 56.3223 22.8789 53.4902C20.5677 50.6908 19.4121 47.2891 19.4121 43.2852V18.4316H17.2637C15.7012 18.4316 14.513 18.8548 13.6992 19.7012C12.3646 21.1335 11.6973 22.6471 11.6973 24.2422V27.0254C11.6973 29.5645 10.5091 31.3223 8.13281 32.2988C7.41667 32.5918 6.65169 32.7383 5.83789 32.7383C5.05664 32.7383 4.30794 32.5918 3.5918 32.2988C2.9082 32.0059 2.30599 31.599 1.78516 31.0781C0.678385 29.9714 0.125 28.6204 0.125 27.0254V24.0957C0.125 20.0918 1.55729 16.6901 4.42188 13.8906C7.28646 11.0586 10.6719 9.64258 14.5781 9.64258H25.1738C26.7363 9.64258 27.9408 10.0495 28.7871 10.8633C30.252 12.263 30.9844 13.7604 30.9844 15.3555V43.1387C30.9844 44.7337 31.4076 45.9544 32.2539 46.8008C33.6862 48.2331 34.9883 48.9492 36.1602 48.9492C37.3646 48.9492 38.3086 48.8353 38.9922 48.6074C39.6758 48.347 40.2943 47.9889 40.8477 47.5332C41.987 46.5566 42.5566 45.2871 42.5566 43.7246V14.3789C42.5566 12.7839 42.9635 11.5957 43.7773 10.8145ZM97.0977 67.1621C98.3346 67.1621 99.3763 67.6016 100.223 68.4805C101.069 69.3594 101.492 70.4173 101.492 71.6543C101.492 72.8587 101.069 73.8841 100.223 74.7305C99.3763 75.5768 98.3346 76 97.0977 76H85.5742C81.6029 76 78.2012 74.584 75.3691 71.752C72.5371 68.9199 71.1211 65.5182 71.1211 61.5469V37.5723C71.1211 33.1452 72.6185 29.6133 75.6133 26.9766C78.7383 24.3073 83.0352 22.9727 88.5039 22.9727C93.9076 22.9727 98.1719 24.3073 101.297 26.9766C104.324 29.6458 105.838 33.2103 105.838 37.6699V51.3418C105.838 52.9694 105.431 54.1901 104.617 55.0039C103.217 56.4036 101.688 57.1035 100.027 57.1035H82.6934V61.4492C82.6934 63.1094 83.1003 64.3301 83.9141 65.1113C85.3464 66.4785 86.86 67.1621 88.4551 67.1621H97.0977ZM94.2656 37.5723C94.2656 35.9447 93.8587 34.724 93.0449 33.9102C91.6126 32.4779 90.099 31.7617 88.5039 31.7617C86.8763 31.7617 85.6393 32.1849 84.793 33.0312C83.3932 34.431 82.6934 35.9447 82.6934 37.5723V48.5586H94.2656V37.5723ZM155.838 71.2637C155.838 73.7376 154.666 75.4792 152.322 76.4883C151.606 76.8138 150.825 76.9766 149.979 76.9766C149.132 76.9766 148.4 76.8464 147.781 76.5859C147.163 76.3255 146.642 76.0326 146.219 75.707C145.633 75.1862 145.21 74.6816 144.949 74.1934C144.721 73.7051 144.51 73.2982 144.314 72.9727C144.119 72.6146 143.826 72.4355 143.436 72.4355C143.045 72.4355 142.703 72.582 142.41 72.875L141.531 73.7051C139.415 75.8861 136.893 76.9766 133.963 76.9766C130.447 76.9766 127.42 75.5443 124.881 72.6797C122.374 69.8802 121.121 66.4948 121.121 62.5234V38.4023C121.121 34.431 122.537 31.0293 125.369 28.1973C128.201 25.3652 131.603 23.9492 135.574 23.9492H144.266V6.66406C144.266 5.03646 144.673 3.81576 145.486 3.00195C146.886 1.60221 148.4 0.902344 150.027 0.902344C151.688 0.902344 152.924 1.30924 153.738 2.12305C155.138 3.52279 155.838 5.03646 155.838 6.66406V71.2637ZM132.693 62.9629C132.693 64.623 133.23 65.9089 134.305 66.8203C135.411 67.6992 136.567 68.1387 137.771 68.1387C139.008 68.1387 139.969 68.0247 140.652 67.7969C141.368 67.569 141.987 67.2435 142.508 66.8203C143.68 65.9089 144.266 64.7044 144.266 63.207V32.7383H138.455C136.86 32.7383 135.639 33.1615 134.793 34.0078C133.393 35.4076 132.693 36.9212 132.693 38.5488V62.9629ZM171.121 37.3281C171.121 32.9336 172.618 29.4505 175.613 26.8789C178.738 24.2747 183.035 22.9727 188.504 22.9727C193.908 22.9727 198.172 24.2747 201.297 26.8789C204.324 29.4831 205.838 32.9987 205.838 37.4258V62.6699C205.838 69.4733 202.518 73.9167 195.877 76C193.729 76.651 191.271 76.9766 188.504 76.9766C185.77 76.9766 183.328 76.651 181.18 76C179.031 75.3164 177.208 74.3398 175.711 73.0703C172.651 70.5312 171.121 67.0156 171.121 62.5234V37.3281ZM194.266 37.5723C194.266 35.9447 193.859 34.724 193.045 33.9102C191.613 32.4779 190.099 31.7617 188.504 31.7617C186.876 31.7617 185.639 32.1849 184.793 33.0312C183.393 34.431 182.693 35.9447 182.693 37.5723V62.9629C182.693 64.623 183.247 65.9089 184.354 66.8203C185.46 67.6992 186.827 68.1387 188.455 68.1387C190.115 68.1387 191.499 67.6992 192.605 66.8203C193.712 65.9089 194.266 64.623 194.266 62.9629V37.5723Z" fill="#FF6347"/>
</svg>
