<svg width="206" height="69" viewBox="0 0 206 69" fill="none" xmlns="http://www.w3.org/2000/svg">
<path d="M43.7773 2.81445C44.6237 2.00065 45.3887 1.44727 46.0723 1.1543C46.7884 0.828776 47.5371 0.666016 48.3184 0.666016C49.1322 0.666016 49.8971 0.828776 50.6133 1.1543C51.3294 1.44727 51.9479 1.85417 52.4688 2.375C53.6081 3.44922 54.1777 4.78385 54.1777 6.37891V53.5469C54.1777 57.5182 52.7292 60.9199 49.832 63.752C46.9674 66.584 43.5495 68 39.5781 68H30.9355C29.6986 68 28.6406 67.5768 27.7617 66.7305C26.9154 65.8841 26.4922 64.8424 26.4922 63.6055C26.4922 62.3685 26.9154 61.3268 27.7617 60.4805C28.6406 59.6016 29.6986 59.1621 30.9355 59.1621H36.6973C39.2689 59.1621 41.0755 58.0065 42.1172 55.6953C42.4102 54.9792 42.5566 54.2305 42.5566 53.4492V46.7598C42.5566 46.1413 42.3776 45.7344 42.0195 45.5391C41.694 45.3112 41.3685 45.1973 41.043 45.1973C40.7174 45.1973 40.4245 45.3438 40.1641 45.6367L39.334 46.418C37.1204 48.6315 34.5488 49.7383 31.6191 49.7383C28.1361 49.7383 25.2227 48.3223 22.8789 45.4902C20.5677 42.6908 19.4121 39.2891 19.4121 35.2852V10.4316H17.2637C15.7012 10.4316 14.513 10.8548 13.6992 11.7012C12.3646 13.1335 11.6973 14.6471 11.6973 16.2422V19.0254C11.6973 21.5645 10.5091 23.3223 8.13281 24.2988C7.41667 24.5918 6.65169 24.7383 5.83789 24.7383C5.05664 24.7383 4.30794 24.5918 3.5918 24.2988C2.9082 24.0059 2.30599 23.599 1.78516 23.0781C0.678385 21.9714 0.125 20.6204 0.125 19.0254V16.0957C0.125 12.0918 1.55729 8.6901 4.42188 5.89062C7.28646 3.05859 10.6719 1.64258 14.5781 1.64258H25.1738C26.7363 1.64258 27.9408 2.04948 28.7871 2.86328C30.252 4.26302 30.9844 5.76042 30.9844 7.35547V35.1387C30.9844 36.7337 31.4076 37.9544 32.2539 38.8008C33.6862 40.2331 34.9883 40.9492 36.1602 40.9492C37.3646 40.9492 38.3086 40.8353 38.9922 40.6074C39.6758 40.347 40.2943 39.9889 40.8477 39.5332C41.987 38.5566 42.5566 37.2871 42.5566 35.7246V6.37891C42.5566 4.78385 42.9635 3.5957 43.7773 2.81445ZM97.0977 59.1621C98.3346 59.1621 99.3763 59.6016 100.223 60.4805C101.069 61.3594 101.492 62.4173 101.492 63.6543C101.492 64.8587 101.069 65.8841 100.223 66.7305C99.3763 67.5768 98.3346 68 97.0977 68H85.5742C81.6029 68 78.2012 66.584 75.3691 63.752C72.5371 60.9199 71.1211 57.5182 71.1211 53.5469V29.5723C71.1211 25.1452 72.6185 21.6133 75.6133 18.9766C78.7383 16.3073 83.0352 14.9727 88.5039 14.9727C93.9076 14.9727 98.1719 16.3073 101.297 18.9766C104.324 21.6458 105.838 25.2103 105.838 29.6699V43.3418C105.838 44.9694 105.431 46.1901 104.617 47.0039C103.217 48.4036 101.688 49.1035 100.027 49.1035H82.6934V53.4492C82.6934 55.1094 83.1003 56.3301 83.9141 57.1113C85.3464 58.4785 86.86 59.1621 88.4551 59.1621H97.0977ZM94.2656 29.5723C94.2656 27.9447 93.8587 26.724 93.0449 25.9102C91.6126 24.4779 90.099 23.7617 88.5039 23.7617C86.8763 23.7617 85.6393 24.1849 84.793 25.0312C83.3932 26.431 82.6934 27.9447 82.6934 29.5723V40.5586H94.2656V29.5723ZM131.424 66.877C130.61 67.6582 129.845 68.1953 129.129 68.4883C128.445 68.8138 127.697 68.9766 126.883 68.9766C126.102 68.9766 125.353 68.8301 124.637 68.5371C123.953 68.2441 123.351 67.8372 122.83 67.3164C121.691 66.1771 121.121 64.8262 121.121 63.2637V20.832C121.121 19.237 121.544 18 122.391 17.1211C123.758 15.6888 125.06 14.9727 126.297 14.9727C127.566 14.9727 128.494 15.1191 129.08 15.4121C129.699 15.6725 130.219 15.9818 130.643 16.3398C131.261 16.8607 131.684 17.3978 131.912 17.9512C132.173 18.472 132.4 18.8626 132.596 19.123C132.791 19.3835 133.084 19.5137 133.475 19.5137C133.898 19.5137 134.24 19.3835 134.5 19.123C134.76 18.8301 135.184 18.3906 135.77 17.8047C137.723 15.9167 139.855 14.9727 142.166 14.9727C144.51 14.9727 146.463 15.3633 148.025 16.1445C149.588 16.8932 150.939 17.9349 152.078 19.2695C154.585 22.1016 155.838 25.487 155.838 29.4258V63.2637C155.838 65.7376 154.682 67.4792 152.371 68.4883C151.655 68.8138 150.89 68.9766 150.076 68.9766C149.295 68.9766 148.546 68.8301 147.83 68.5371C147.114 68.2441 146.495 67.8372 145.975 67.3164C144.835 66.1771 144.266 64.8262 144.266 63.2637V29.5723C144.266 27.9772 143.875 26.7565 143.094 25.9102C141.694 24.4779 140.197 23.7617 138.602 23.7617C135.997 23.7617 134.191 24.7708 133.182 26.7891C132.856 27.4401 132.693 28.1725 132.693 28.9863V63.2637C132.693 64.8587 132.27 66.0632 131.424 66.877ZM171.121 29.3281C171.121 24.9336 172.618 21.4505 175.613 18.8789C178.738 16.2747 183.035 14.9727 188.504 14.9727C193.908 14.9727 198.172 16.2747 201.297 18.8789C204.324 21.4831 205.838 24.9987 205.838 29.4258V54.6699C205.838 61.4733 202.518 65.9167 195.877 68C193.729 68.651 191.271 68.9766 188.504 68.9766C185.77 68.9766 183.328 68.651 181.18 68C179.031 67.3164 177.208 66.3398 175.711 65.0703C172.651 62.5312 171.121 59.0156 171.121 54.5234V29.3281ZM194.266 29.5723C194.266 27.9447 193.859 26.724 193.045 25.9102C191.613 24.4779 190.099 23.7617 188.504 23.7617C186.876 23.7617 185.639 24.1849 184.793 25.0312C183.393 26.431 182.693 27.9447 182.693 29.5723V54.9629C182.693 56.623 183.247 57.9089 184.354 58.8203C185.46 59.6992 186.827 60.1387 188.455 60.1387C190.115 60.1387 191.499 59.6992 192.605 58.8203C193.712 57.9089 194.266 56.623 194.266 54.9629V29.5723Z" fill="#FF6347"/>
</svg>
