<svg width="381" height="123" viewBox="0 0 381 123" fill="none" xmlns="http://www.w3.org/2000/svg">
<path d="M1.125 11.1719C0.916667 10.4948 0.8125 9.66146 0.8125 8.67188C0.8125 7.63021 1.02083 6.58854 1.4375 5.54688C1.90625 4.50521 2.50521 3.59375 3.23438 2.8125C4.79688 1.04167 6.41146 0.15625 8.07812 0.15625C9.79688 0.15625 11.151 0.3125 12.1406 0.625C13.1302 0.9375 14.0417 1.35417 14.875 1.875C16.75 3.125 17.8958 4.73958 18.3125 6.71875L23 24.2188C23.4688 26.1979 24.0938 28.5417 24.875 31.25L27.5312 40.3125C29.9271 48.8542 31.8281 56.6927 33.2344 63.8281C34.1198 59.401 35.0312 55.2083 35.9688 51.25C38.2604 41.6146 39.8229 35.1823 40.6562 31.9531L47.6094 6.71875C48.2344 3.75 50.2656 1.71875 53.7031 0.625C54.6927 0.3125 55.7344 0.15625 56.8281 0.15625C57.974 0.15625 59.0677 0.416667 60.1094 0.9375C61.151 1.40625 62.0365 2.05729 62.7656 2.89062C64.3281 4.66146 65.1094 6.32812 65.1094 7.89062C65.1094 9.45312 65.0052 10.5469 64.7969 11.1719L42.7656 78.9062C42.1406 81.0417 40.9948 82.8646 39.3281 84.375C37.6615 85.8333 35.8906 86.5625 34.0156 86.5625C32.1927 86.5625 30.7344 86.3542 29.6406 85.9375C28.599 85.5208 27.6354 84.9479 26.75 84.2188C25.0833 82.7604 23.9115 80.9115 23.2344 78.6719L1.125 11.1719ZM126.75 70.8594C128.729 70.8594 130.396 71.5625 131.75 72.9688C133.104 74.375 133.781 76.0677 133.781 78.0469C133.781 79.974 133.104 81.6146 131.75 82.9688C130.396 84.3229 128.729 85 126.75 85H108.312C101.958 85 96.5156 82.7344 91.9844 78.2031C87.4531 73.6719 85.1875 68.2292 85.1875 61.875V23.5156C85.1875 16.4323 87.5833 10.7812 92.375 6.5625C97.375 2.29167 104.25 0.15625 113 0.15625C121.646 0.15625 128.469 2.29167 133.469 6.5625C138.312 10.8333 140.734 16.5365 140.734 23.6719V45.5469C140.734 48.151 140.083 50.1042 138.781 51.4062C136.542 53.6458 134.094 54.7656 131.438 54.7656H103.703V61.7188C103.703 64.375 104.354 66.3281 105.656 67.5781C107.948 69.7656 110.37 70.8594 112.922 70.8594H126.75ZM122.219 23.5156C122.219 20.9115 121.568 18.9583 120.266 17.6562C117.974 15.3646 115.552 14.2188 113 14.2188C110.396 14.2188 108.417 14.8958 107.062 16.25C104.823 18.4896 103.703 20.9115 103.703 23.5156V41.0938H122.219V23.5156ZM206.75 70.8594C208.729 70.8594 210.396 71.5625 211.75 72.9688C213.104 74.375 213.781 76.0677 213.781 78.0469C213.781 79.974 213.104 81.6146 211.75 82.9688C210.396 84.3229 208.729 85 206.75 85H188.312C181.958 85 176.516 82.7344 171.984 78.2031C167.453 73.6719 165.188 68.2292 165.188 61.875V23.5156C165.188 16.4323 167.583 10.7812 172.375 6.5625C177.375 2.29167 184.25 0.15625 193 0.15625C201.646 0.15625 208.469 2.29167 213.469 6.5625C218.312 10.8333 220.734 16.5365 220.734 23.6719V45.5469C220.734 48.151 220.083 50.1042 218.781 51.4062C216.542 53.6458 214.094 54.7656 211.438 54.7656H183.703V61.7188C183.703 64.375 184.354 66.3281 185.656 67.5781C187.948 69.7656 190.37 70.8594 192.922 70.8594H206.75ZM202.219 23.5156C202.219 20.9115 201.568 18.9583 200.266 17.6562C197.974 15.3646 195.552 14.2188 193 14.2188C190.396 14.2188 188.417 14.8958 187.062 16.25C184.823 18.4896 183.703 20.9115 183.703 23.5156V41.0938H202.219V23.5156ZM245.266 58.2812C245.266 49.9479 249.12 44.2188 256.828 41.0938C252.974 39.0104 250.37 36.901 249.016 34.7656C246.516 30.9635 245.266 26.5104 245.266 21.4062V9.53125C245.266 6.92708 245.917 4.94792 247.219 3.59375C249.406 1.30208 251.802 0.15625 254.406 0.15625C257.01 0.15625 258.99 0.833333 260.344 2.1875C262.583 4.42708 263.703 6.875 263.703 9.53125V24.8438C263.703 27.3958 264.354 29.349 265.656 30.7031C267.792 32.9427 270.292 34.0625 273.156 34.0625C277.062 34.0625 279.823 32.1875 281.438 28.4375C281.958 27.3438 282.219 26.1458 282.219 24.8438V9.53125C282.219 5.41667 284.094 2.55208 287.844 0.9375C288.938 0.416667 290.135 0.15625 291.438 0.15625C292.792 0.15625 294.016 0.416667 295.109 0.9375C296.203 1.40625 297.167 2.05729 298 2.89062C299.771 4.66146 300.656 6.875 300.656 9.53125V21.4062C300.656 28.6979 298.365 34.2188 293.781 37.9688C292.375 39.1146 290.812 40.1562 289.094 41.0938C296.802 44.2188 300.656 49.9479 300.656 58.2812V77.4219C300.656 79.974 300.005 81.901 298.703 83.2031C296.464 85.4427 294.354 86.5625 292.375 86.5625C290.448 86.5625 288.911 86.3281 287.766 85.8594C286.672 85.3906 285.708 84.7396 284.875 83.9062C283.104 82.1354 282.219 79.974 282.219 77.4219V57.4219C282.219 54.8698 281.594 52.9167 280.344 51.5625C278.104 49.2708 275.995 48.125 274.016 48.125C272.089 48.125 270.552 48.3594 269.406 48.8281C268.26 49.2969 267.271 49.9479 266.438 50.7812C264.615 52.5 263.703 54.7135 263.703 57.4219V77.4219C263.703 79.974 263.052 81.901 261.75 83.2031C259.51 85.4427 257.062 86.5625 254.406 86.5625C251.75 86.5625 249.797 85.9115 248.547 84.6094C246.359 82.3177 245.266 79.9219 245.266 77.4219V58.2812ZM364.094 3.59375C365.448 2.29167 366.672 1.40625 367.766 0.9375C368.911 0.416667 370.109 0.15625 371.359 0.15625C372.661 0.15625 373.885 0.390625 375.031 0.859375C376.177 1.32812 377.167 1.97917 378 2.8125C379.823 4.63542 380.734 6.79688 380.734 9.29688V98.9062C380.734 105.312 378.469 110.755 373.938 115.234C369.302 119.766 363.807 122.031 357.453 122.031H343.625C341.646 122.031 339.953 121.354 338.547 120C337.193 118.646 336.516 116.979 336.516 115C336.516 113.021 337.193 111.328 338.547 109.922C339.953 108.568 341.646 107.891 343.625 107.891H352.844C355.5 107.891 357.479 107.24 358.781 105.938C361.021 103.698 362.141 101.302 362.141 98.75V81.7969C362.141 80.8073 361.854 80.1562 361.281 79.8438C360.76 79.4792 360.24 79.2969 359.719 79.2969C359.198 79.2969 358.729 79.5312 358.312 80L356.984 81.25C353.443 84.7917 349.354 86.5625 344.719 86.5625C339.094 86.5625 334.432 84.2708 330.734 79.6875C327.036 75.1562 325.188 69.7396 325.188 63.4375V9.29688C325.188 5.33854 327.062 2.55208 330.812 0.9375C331.906 0.416667 333.078 0.15625 334.328 0.15625C335.63 0.15625 336.854 0.390625 338 0.859375C339.146 1.32812 340.135 1.97917 340.969 2.8125C342.792 4.63542 343.703 6.79688 343.703 9.29688V63.2031C343.703 65.7552 344.354 67.7083 345.656 69.0625C347.844 71.3542 349.901 72.5 351.828 72.5C353.755 72.5 355.266 72.3177 356.359 71.9531C357.505 71.5365 358.521 70.9635 359.406 70.2344C361.229 68.6719 362.141 66.6406 362.141 64.1406V9.29688C362.141 6.74479 362.792 4.84375 364.094 3.59375Z" fill="#FF6347"/>
</svg>
